<mxfile host="app.diagrams.net" modified="2023-10-24T14:25:21.254Z" agent="Mozilla/5.0 (Windows NT 10.0; Win64; x64) AppleWebKit/537.36 (KHTML, like Gecko) Chrome/118.0.0.0 Safari/537.36" etag="pnmq-Zzmi6asxuoB8357" version="22.0.6" type="github">
  <diagram name="Сторінка-1" id="Ff_DaVqJSbVM_X8PUsOf">
    <mxGraphModel dx="2514" dy="932" grid="1" gridSize="10" guides="1" tooltips="1" connect="1" arrows="1" fold="1" page="1" pageScale="1" pageWidth="827" pageHeight="1169" math="0" shadow="0">
      <root>
        <mxCell id="0" />
        <mxCell id="1" parent="0" />
        <mxCell id="0b9zWAWEvCfBDJ6bF9OK-1" value="int(main)" style="ellipse;whiteSpace=wrap;html=1;" vertex="1" parent="1">
          <mxGeometry x="340" y="170" width="120" height="80" as="geometry" />
        </mxCell>
        <mxCell id="0b9zWAWEvCfBDJ6bF9OK-2" value="system(&quot;chcp 65001&quot;)" style="rounded=0;whiteSpace=wrap;html=1;" vertex="1" parent="1">
          <mxGeometry x="340" y="320" width="120" height="60" as="geometry" />
        </mxCell>
        <mxCell id="0b9zWAWEvCfBDJ6bF9OK-3" value="" style="endArrow=classic;html=1;rounded=0;" edge="1" parent="1">
          <mxGeometry width="50" height="50" relative="1" as="geometry">
            <mxPoint x="399.5" y="250" as="sourcePoint" />
            <mxPoint x="399.5" y="320" as="targetPoint" />
            <Array as="points">
              <mxPoint x="399.5" y="250" />
            </Array>
          </mxGeometry>
        </mxCell>
        <mxCell id="0b9zWAWEvCfBDJ6bF9OK-4" value="int n" style="rounded=0;whiteSpace=wrap;html=1;" vertex="1" parent="1">
          <mxGeometry x="340" y="410" width="120" height="60" as="geometry" />
        </mxCell>
        <mxCell id="0b9zWAWEvCfBDJ6bF9OK-6" value="int&amp;nbsp; count = 0" style="rounded=0;whiteSpace=wrap;html=1;" vertex="1" parent="1">
          <mxGeometry x="340" y="500" width="120" height="60" as="geometry" />
        </mxCell>
        <mxCell id="0b9zWAWEvCfBDJ6bF9OK-7" value="" style="endArrow=classic;html=1;rounded=0;" edge="1" parent="1">
          <mxGeometry width="50" height="50" relative="1" as="geometry">
            <mxPoint x="399.5" y="380" as="sourcePoint" />
            <mxPoint x="399.5" y="410" as="targetPoint" />
            <Array as="points" />
          </mxGeometry>
        </mxCell>
        <mxCell id="0b9zWAWEvCfBDJ6bF9OK-8" value="" style="endArrow=classic;html=1;rounded=0;" edge="1" parent="1">
          <mxGeometry width="50" height="50" relative="1" as="geometry">
            <mxPoint x="400" y="470" as="sourcePoint" />
            <mxPoint x="400" y="500" as="targetPoint" />
            <Array as="points" />
          </mxGeometry>
        </mxCell>
        <mxCell id="0b9zWAWEvCfBDJ6bF9OK-9" value="std::cout" style="rounded=0;whiteSpace=wrap;html=1;" vertex="1" parent="1">
          <mxGeometry x="340" y="590" width="120" height="60" as="geometry" />
        </mxCell>
        <mxCell id="0b9zWAWEvCfBDJ6bF9OK-10" value="" style="endArrow=classic;html=1;rounded=0;" edge="1" parent="1">
          <mxGeometry width="50" height="50" relative="1" as="geometry">
            <mxPoint x="400" y="560" as="sourcePoint" />
            <mxPoint x="400" y="590" as="targetPoint" />
            <Array as="points" />
          </mxGeometry>
        </mxCell>
        <mxCell id="0b9zWAWEvCfBDJ6bF9OK-11" value="&quot;Введіть натуральне число: &quot;" style="rounded=0;whiteSpace=wrap;html=1;" vertex="1" parent="1">
          <mxGeometry x="340" y="680" width="120" height="60" as="geometry" />
        </mxCell>
        <mxCell id="0b9zWAWEvCfBDJ6bF9OK-12" value="" style="endArrow=classic;html=1;rounded=0;" edge="1" parent="1">
          <mxGeometry width="50" height="50" relative="1" as="geometry">
            <mxPoint x="400" y="650" as="sourcePoint" />
            <mxPoint x="400" y="680" as="targetPoint" />
            <Array as="points" />
          </mxGeometry>
        </mxCell>
        <mxCell id="0b9zWAWEvCfBDJ6bF9OK-13" value="std::cin" style="rounded=0;whiteSpace=wrap;html=1;" vertex="1" parent="1">
          <mxGeometry x="340" y="770" width="120" height="60" as="geometry" />
        </mxCell>
        <mxCell id="0b9zWAWEvCfBDJ6bF9OK-14" value="" style="endArrow=classic;html=1;rounded=0;" edge="1" parent="1">
          <mxGeometry width="50" height="50" relative="1" as="geometry">
            <mxPoint x="400" y="740" as="sourcePoint" />
            <mxPoint x="400" y="770" as="targetPoint" />
            <Array as="points" />
          </mxGeometry>
        </mxCell>
        <mxCell id="0b9zWAWEvCfBDJ6bF9OK-15" value="n" style="rounded=0;whiteSpace=wrap;html=1;" vertex="1" parent="1">
          <mxGeometry x="340" y="860" width="120" height="60" as="geometry" />
        </mxCell>
        <mxCell id="0b9zWAWEvCfBDJ6bF9OK-16" value="" style="endArrow=classic;html=1;rounded=0;" edge="1" parent="1">
          <mxGeometry width="50" height="50" relative="1" as="geometry">
            <mxPoint x="400" y="830" as="sourcePoint" />
            <mxPoint x="400" y="860" as="targetPoint" />
            <Array as="points" />
          </mxGeometry>
        </mxCell>
        <mxCell id="0b9zWAWEvCfBDJ6bF9OK-18" value="n &amp;lt;= 0" style="rhombus;whiteSpace=wrap;html=1;" vertex="1" parent="1">
          <mxGeometry x="360" y="950" width="80" height="80" as="geometry" />
        </mxCell>
        <mxCell id="0b9zWAWEvCfBDJ6bF9OK-19" value="" style="endArrow=classic;html=1;rounded=0;" edge="1" parent="1">
          <mxGeometry width="50" height="50" relative="1" as="geometry">
            <mxPoint x="399.5" y="920" as="sourcePoint" />
            <mxPoint x="399.5" y="950" as="targetPoint" />
            <Array as="points" />
          </mxGeometry>
        </mxCell>
        <mxCell id="0b9zWAWEvCfBDJ6bF9OK-20" value="" style="endArrow=classic;html=1;rounded=0;" edge="1" parent="1">
          <mxGeometry width="50" height="50" relative="1" as="geometry">
            <mxPoint x="380" y="1010" as="sourcePoint" />
            <mxPoint x="320" y="1050" as="targetPoint" />
            <Array as="points" />
          </mxGeometry>
        </mxCell>
        <mxCell id="0b9zWAWEvCfBDJ6bF9OK-23" value="True" style="ellipse;shape=cloud;whiteSpace=wrap;html=1;" vertex="1" parent="1">
          <mxGeometry x="320" y="1000" width="60" height="50" as="geometry" />
        </mxCell>
        <mxCell id="0b9zWAWEvCfBDJ6bF9OK-26" value="" style="endArrow=classic;html=1;rounded=0;" edge="1" parent="1" target="0b9zWAWEvCfBDJ6bF9OK-25">
          <mxGeometry width="50" height="50" relative="1" as="geometry">
            <mxPoint x="420" y="1010" as="sourcePoint" />
            <mxPoint x="480" y="1040" as="targetPoint" />
            <Array as="points" />
          </mxGeometry>
        </mxCell>
        <mxCell id="0b9zWAWEvCfBDJ6bF9OK-27" value="std::cout" style="rounded=0;whiteSpace=wrap;html=1;" vertex="1" parent="1">
          <mxGeometry x="210" y="1050" width="120" height="60" as="geometry" />
        </mxCell>
        <mxCell id="0b9zWAWEvCfBDJ6bF9OK-28" value="&quot;Введене число натуральне &quot;" style="rounded=0;whiteSpace=wrap;html=1;" vertex="1" parent="1">
          <mxGeometry x="340" y="1169" width="120" height="60" as="geometry" />
        </mxCell>
        <mxCell id="0b9zWAWEvCfBDJ6bF9OK-29" value="" style="endArrow=classic;html=1;rounded=0;" edge="1" parent="1">
          <mxGeometry width="50" height="50" relative="1" as="geometry">
            <mxPoint x="280" y="1110" as="sourcePoint" />
            <mxPoint x="340" y="1170" as="targetPoint" />
            <Array as="points" />
          </mxGeometry>
        </mxCell>
        <mxCell id="0b9zWAWEvCfBDJ6bF9OK-30" value="" style="endArrow=classic;html=1;rounded=0;entryX=0.867;entryY=0.017;entryDx=0;entryDy=0;entryPerimeter=0;" edge="1" parent="1" source="0b9zWAWEvCfBDJ6bF9OK-25" target="0b9zWAWEvCfBDJ6bF9OK-28">
          <mxGeometry width="50" height="50" relative="1" as="geometry">
            <mxPoint x="443.5" y="1050" as="sourcePoint" />
            <mxPoint x="444" y="1160" as="targetPoint" />
            <Array as="points" />
          </mxGeometry>
        </mxCell>
        <mxCell id="0b9zWAWEvCfBDJ6bF9OK-25" value="False" style="ellipse;shape=cloud;whiteSpace=wrap;html=1;" vertex="1" parent="1">
          <mxGeometry x="414" y="1040" width="60" height="50" as="geometry" />
        </mxCell>
        <mxCell id="0b9zWAWEvCfBDJ6bF9OK-32" value="std::endl" style="rounded=0;whiteSpace=wrap;html=1;" vertex="1" parent="1">
          <mxGeometry x="340" y="1270" width="120" height="60" as="geometry" />
        </mxCell>
        <mxCell id="0b9zWAWEvCfBDJ6bF9OK-33" value="else" style="rounded=0;whiteSpace=wrap;html=1;" vertex="1" parent="1">
          <mxGeometry x="340" y="1370" width="120" height="60" as="geometry" />
        </mxCell>
        <mxCell id="0b9zWAWEvCfBDJ6bF9OK-34" value="" style="endArrow=classic;html=1;rounded=0;entryX=0.5;entryY=0;entryDx=0;entryDy=0;" edge="1" parent="1" target="0b9zWAWEvCfBDJ6bF9OK-33">
          <mxGeometry width="50" height="50" relative="1" as="geometry">
            <mxPoint x="399.5" y="1330" as="sourcePoint" />
            <mxPoint x="399.5" y="1360" as="targetPoint" />
            <Array as="points" />
          </mxGeometry>
        </mxCell>
        <mxCell id="0b9zWAWEvCfBDJ6bF9OK-35" value="" style="endArrow=classic;html=1;rounded=0;entryX=0.5;entryY=0;entryDx=0;entryDy=0;" edge="1" parent="1">
          <mxGeometry width="50" height="50" relative="1" as="geometry">
            <mxPoint x="399.5" y="1229" as="sourcePoint" />
            <mxPoint x="400" y="1269" as="targetPoint" />
            <Array as="points" />
          </mxGeometry>
        </mxCell>
        <mxCell id="0b9zWAWEvCfBDJ6bF9OK-36" value="n &amp;lt;= 0" style="rhombus;whiteSpace=wrap;html=1;" vertex="1" parent="1">
          <mxGeometry x="360" y="1500" width="80" height="80" as="geometry" />
        </mxCell>
        <mxCell id="0b9zWAWEvCfBDJ6bF9OK-37" value="True" style="ellipse;shape=cloud;whiteSpace=wrap;html=1;" vertex="1" parent="1">
          <mxGeometry x="370" y="1610" width="60" height="50" as="geometry" />
        </mxCell>
        <mxCell id="0b9zWAWEvCfBDJ6bF9OK-38" value="False" style="ellipse;shape=cloud;whiteSpace=wrap;html=1;" vertex="1" parent="1">
          <mxGeometry x="270" y="1560" width="60" height="50" as="geometry" />
        </mxCell>
        <mxCell id="0b9zWAWEvCfBDJ6bF9OK-39" value="" style="endArrow=classic;html=1;rounded=0;entryX=0.875;entryY=0.5;entryDx=0;entryDy=0;entryPerimeter=0;exitX=0.088;exitY=0.575;exitDx=0;exitDy=0;exitPerimeter=0;" edge="1" parent="1" source="0b9zWAWEvCfBDJ6bF9OK-36" target="0b9zWAWEvCfBDJ6bF9OK-38">
          <mxGeometry width="50" height="50" relative="1" as="geometry">
            <mxPoint x="360" y="1550" as="sourcePoint" />
            <mxPoint x="370" y="1625" as="targetPoint" />
            <Array as="points" />
          </mxGeometry>
        </mxCell>
        <mxCell id="0b9zWAWEvCfBDJ6bF9OK-40" value="" style="endArrow=classic;html=1;rounded=0;entryX=0.517;entryY=0.12;entryDx=0;entryDy=0;entryPerimeter=0;exitX=0.5;exitY=1;exitDx=0;exitDy=0;" edge="1" parent="1" source="0b9zWAWEvCfBDJ6bF9OK-36" target="0b9zWAWEvCfBDJ6bF9OK-37">
          <mxGeometry width="50" height="50" relative="1" as="geometry">
            <mxPoint x="474" y="1565.5" as="sourcePoint" />
            <mxPoint x="430" y="1604.5" as="targetPoint" />
            <Array as="points" />
          </mxGeometry>
        </mxCell>
        <mxCell id="0b9zWAWEvCfBDJ6bF9OK-41" value="" style="endArrow=classic;html=1;rounded=0;entryX=0.5;entryY=0;entryDx=0;entryDy=0;" edge="1" parent="1" target="0b9zWAWEvCfBDJ6bF9OK-36">
          <mxGeometry width="50" height="50" relative="1" as="geometry">
            <mxPoint x="399.5" y="1430" as="sourcePoint" />
            <mxPoint x="400" y="1470" as="targetPoint" />
            <Array as="points" />
          </mxGeometry>
        </mxCell>
        <mxCell id="0b9zWAWEvCfBDJ6bF9OK-42" value="int digit = n % 10" style="rounded=0;whiteSpace=wrap;html=1;" vertex="1" parent="1">
          <mxGeometry x="340" y="1694" width="120" height="60" as="geometry" />
        </mxCell>
        <mxCell id="0b9zWAWEvCfBDJ6bF9OK-43" value="digit &amp;gt; 3" style="rhombus;whiteSpace=wrap;html=1;" vertex="1" parent="1">
          <mxGeometry x="360" y="1790" width="80" height="80" as="geometry" />
        </mxCell>
        <mxCell id="0b9zWAWEvCfBDJ6bF9OK-44" value="True" style="ellipse;shape=cloud;whiteSpace=wrap;html=1;" vertex="1" parent="1">
          <mxGeometry x="270" y="1850" width="60" height="50" as="geometry" />
        </mxCell>
        <mxCell id="0b9zWAWEvCfBDJ6bF9OK-45" value="False" style="ellipse;shape=cloud;whiteSpace=wrap;html=1;" vertex="1" parent="1">
          <mxGeometry x="370" y="1900" width="60" height="50" as="geometry" />
        </mxCell>
        <mxCell id="0b9zWAWEvCfBDJ6bF9OK-46" value="n /= 10" style="rounded=0;whiteSpace=wrap;html=1;" vertex="1" parent="1">
          <mxGeometry x="340" y="1990" width="120" height="60" as="geometry" />
        </mxCell>
        <mxCell id="0b9zWAWEvCfBDJ6bF9OK-47" value="count++" style="rounded=0;whiteSpace=wrap;html=1;" vertex="1" parent="1">
          <mxGeometry x="180" y="1940" width="120" height="60" as="geometry" />
        </mxCell>
        <mxCell id="0b9zWAWEvCfBDJ6bF9OK-48" value="" style="endArrow=classic;html=1;rounded=0;entryX=0.517;entryY=0.12;entryDx=0;entryDy=0;entryPerimeter=0;exitX=0.5;exitY=1;exitDx=0;exitDy=0;" edge="1" parent="1">
          <mxGeometry width="50" height="50" relative="1" as="geometry">
            <mxPoint x="399.5" y="1754" as="sourcePoint" />
            <mxPoint x="400.5" y="1790" as="targetPoint" />
            <Array as="points" />
          </mxGeometry>
        </mxCell>
        <mxCell id="0b9zWAWEvCfBDJ6bF9OK-49" value="" style="endArrow=classic;html=1;rounded=0;" edge="1" parent="1">
          <mxGeometry width="50" height="50" relative="1" as="geometry">
            <mxPoint x="400" y="1870" as="sourcePoint" />
            <mxPoint x="400" y="1900" as="targetPoint" />
            <Array as="points" />
          </mxGeometry>
        </mxCell>
        <mxCell id="0b9zWAWEvCfBDJ6bF9OK-50" value="" style="endArrow=classic;html=1;rounded=0;exitX=0.154;exitY=0.656;exitDx=0;exitDy=0;exitPerimeter=0;entryX=0.915;entryY=0.404;entryDx=0;entryDy=0;entryPerimeter=0;" edge="1" parent="1" source="0b9zWAWEvCfBDJ6bF9OK-43" target="0b9zWAWEvCfBDJ6bF9OK-44">
          <mxGeometry width="50" height="50" relative="1" as="geometry">
            <mxPoint x="380" y="1840" as="sourcePoint" />
            <mxPoint x="330" y="1869" as="targetPoint" />
            <Array as="points" />
          </mxGeometry>
        </mxCell>
        <mxCell id="0b9zWAWEvCfBDJ6bF9OK-51" value="" style="endArrow=classic;html=1;rounded=0;entryX=0.517;entryY=0.12;entryDx=0;entryDy=0;entryPerimeter=0;exitX=0.55;exitY=0.95;exitDx=0;exitDy=0;exitPerimeter=0;" edge="1" parent="1" source="0b9zWAWEvCfBDJ6bF9OK-45">
          <mxGeometry width="50" height="50" relative="1" as="geometry">
            <mxPoint x="399.5" y="1954" as="sourcePoint" />
            <mxPoint x="400.5" y="1990" as="targetPoint" />
            <Array as="points" />
          </mxGeometry>
        </mxCell>
        <mxCell id="0b9zWAWEvCfBDJ6bF9OK-52" value="" style="endArrow=classic;html=1;rounded=0;entryX=0.649;entryY=-0.02;entryDx=0;entryDy=0;entryPerimeter=0;exitX=0.13;exitY=0.77;exitDx=0;exitDy=0;exitPerimeter=0;" edge="1" parent="1" source="0b9zWAWEvCfBDJ6bF9OK-44" target="0b9zWAWEvCfBDJ6bF9OK-47">
          <mxGeometry width="50" height="50" relative="1" as="geometry">
            <mxPoint x="260" y="1900" as="sourcePoint" />
            <mxPoint x="261" y="1936" as="targetPoint" />
            <Array as="points" />
          </mxGeometry>
        </mxCell>
        <mxCell id="0b9zWAWEvCfBDJ6bF9OK-53" value="" style="endArrow=classic;html=1;rounded=0;exitX=1;exitY=0.5;exitDx=0;exitDy=0;" edge="1" parent="1" source="0b9zWAWEvCfBDJ6bF9OK-46">
          <mxGeometry width="50" height="50" relative="1" as="geometry">
            <mxPoint x="500" y="2014" as="sourcePoint" />
            <mxPoint x="400" y="1460" as="targetPoint" />
            <Array as="points">
              <mxPoint x="600" y="1900" />
              <mxPoint x="700" y="1650" />
              <mxPoint x="690" y="1500" />
            </Array>
          </mxGeometry>
        </mxCell>
        <mxCell id="0b9zWAWEvCfBDJ6bF9OK-54" value="" style="endArrow=classic;html=1;rounded=0;entryX=0.517;entryY=0.12;entryDx=0;entryDy=0;entryPerimeter=0;exitX=0.5;exitY=1;exitDx=0;exitDy=0;" edge="1" parent="1">
          <mxGeometry width="50" height="50" relative="1" as="geometry">
            <mxPoint x="399.5" y="1660" as="sourcePoint" />
            <mxPoint x="400.5" y="1696" as="targetPoint" />
            <Array as="points" />
          </mxGeometry>
        </mxCell>
        <mxCell id="0b9zWAWEvCfBDJ6bF9OK-55" value="" style="endArrow=classic;html=1;rounded=0;entryX=0.875;entryY=0.5;entryDx=0;entryDy=0;entryPerimeter=0;exitX=0.088;exitY=0.575;exitDx=0;exitDy=0;exitPerimeter=0;" edge="1" parent="1">
          <mxGeometry width="50" height="50" relative="1" as="geometry">
            <mxPoint x="284" y="1600" as="sourcePoint" />
            <mxPoint x="240" y="1639" as="targetPoint" />
            <Array as="points" />
          </mxGeometry>
        </mxCell>
        <mxCell id="0b9zWAWEvCfBDJ6bF9OK-56" value="std::cout" style="rounded=0;whiteSpace=wrap;html=1;" vertex="1" parent="1">
          <mxGeometry x="120" y="1640" width="120" height="60" as="geometry" />
        </mxCell>
        <mxCell id="0b9zWAWEvCfBDJ6bF9OK-57" value="&quot;Кількість цифр більших за 3: &quot;" style="rounded=0;whiteSpace=wrap;html=1;" vertex="1" parent="1">
          <mxGeometry x="-10" y="1724" width="120" height="60" as="geometry" />
        </mxCell>
        <mxCell id="0b9zWAWEvCfBDJ6bF9OK-58" value="count" style="rounded=0;whiteSpace=wrap;html=1;" vertex="1" parent="1">
          <mxGeometry x="-140" y="1800" width="120" height="60" as="geometry" />
        </mxCell>
        <mxCell id="0b9zWAWEvCfBDJ6bF9OK-59" value="std::endl" style="rounded=0;whiteSpace=wrap;html=1;" vertex="1" parent="1">
          <mxGeometry x="-270" y="1880" width="120" height="60" as="geometry" />
        </mxCell>
        <mxCell id="0b9zWAWEvCfBDJ6bF9OK-60" value="" style="endArrow=classic;html=1;rounded=0;exitX=0.088;exitY=0.575;exitDx=0;exitDy=0;exitPerimeter=0;" edge="1" parent="1">
          <mxGeometry width="50" height="50" relative="1" as="geometry">
            <mxPoint x="120" y="1704.5" as="sourcePoint" />
            <mxPoint x="110" y="1720" as="targetPoint" />
            <Array as="points" />
          </mxGeometry>
        </mxCell>
        <mxCell id="0b9zWAWEvCfBDJ6bF9OK-61" value="" style="endArrow=classic;html=1;rounded=0;exitX=0.088;exitY=0.575;exitDx=0;exitDy=0;exitPerimeter=0;" edge="1" parent="1">
          <mxGeometry width="50" height="50" relative="1" as="geometry">
            <mxPoint x="-10" y="1784.5" as="sourcePoint" />
            <mxPoint x="-20" y="1800" as="targetPoint" />
            <Array as="points" />
          </mxGeometry>
        </mxCell>
        <mxCell id="0b9zWAWEvCfBDJ6bF9OK-62" value="" style="endArrow=classic;html=1;rounded=0;exitX=0.088;exitY=0.575;exitDx=0;exitDy=0;exitPerimeter=0;" edge="1" parent="1">
          <mxGeometry width="50" height="50" relative="1" as="geometry">
            <mxPoint x="-140" y="1860" as="sourcePoint" />
            <mxPoint x="-150" y="1875.5" as="targetPoint" />
            <Array as="points" />
          </mxGeometry>
        </mxCell>
      </root>
    </mxGraphModel>
  </diagram>
</mxfile>
